<svg width="33" height="33" viewBox="0 0 33 33" fill="none" xmlns="http://www.w3.org/2000/svg">
    <path d="M13.937 0.344891C12.6061 0.695056 11.5024 1.25214 10.7233 1.96838L10.2202 2.44588L9.58723 1.96838C8.69456 1.25214 7.68828 0.933805 6.37362 0.933805C4.94536 0.949721 3.95531 1.34764 2.98149 2.33446C1.2773 4.05346 1.09877 7.17311 2.60819 8.74885C2.90034 9.05126 2.91657 9.16268 2.75426 9.38551C2.26735 10.0381 1.24484 12.2823 1.00139 13.2214C0.806624 13.9854 0.757933 14.7494 0.806624 16.166C0.887776 18.4261 1.29353 19.7631 2.38097 21.3707C2.73803 21.9119 3.04641 22.3894 3.04641 22.4212C3.04641 22.4689 2.83541 22.7554 2.5595 23.0419C1.99144 23.6945 1.58568 24.936 1.58568 26.0661C1.58568 28.756 3.76054 30.9366 6.45478 30.9525C7.62336 30.9525 8.4998 30.6978 9.42492 30.093L10.1715 29.6155L11.0317 30.2362C12.882 31.5892 14.3914 32.0667 16.8422 32.0667C18.2542 32.0667 18.7574 31.9871 19.8123 31.6369C21.0783 31.2231 22.5553 30.4113 22.9935 29.902C23.2856 29.5359 23.3992 29.5518 24.1783 30.1089C24.9086 30.6342 26.1746 31.0639 27.0024 31.0639C27.9113 31.0639 29.5667 30.4591 30.2647 29.8702C32.1636 28.2785 32.4557 25.2862 30.9463 23.0579L30.4594 22.3257L31.1736 21.323C33.2835 18.2988 33.3322 13.6512 31.2872 10.3246C30.6866 9.35368 30.6379 9.21043 30.8489 8.97168C31.8877 7.80977 32.2285 5.56553 31.6118 3.94204C31.1736 2.81196 30.151 1.74555 29.0474 1.25214C27.473 0.567723 25.1359 0.933805 23.9348 2.06388C23.6102 2.3663 23.4317 2.44588 23.2694 2.33446C22.2144 1.53864 20.8835 0.790555 20.0396 0.504057C18.5464 -0.005274 15.56 -0.0848569 13.937 0.344891ZM19.4553 3.32129C20.0396 3.60779 20.6888 4.02162 20.8998 4.24445L21.2893 4.65829L19.0657 6.83886L16.8422 9.01943L14.5699 6.79111C13.3202 5.56553 12.2977 4.49912 12.2977 4.41954C12.2977 4.22854 12.7197 3.92612 13.515 3.49638C14.6835 2.87563 15.3977 2.73238 16.9396 2.78013C18.2218 2.81196 18.5626 2.89154 19.4553 3.32129ZM7.3799 4.05346C7.57467 4.16487 9.31131 5.78836 11.2427 7.66652L14.7485 11.0727L13.3202 12.4733L11.8919 13.874L8.43487 10.4997C6.53593 8.63743 4.8642 6.90253 4.71813 6.64786C4.10138 5.48595 5.09143 3.84654 6.40608 3.84654C6.74692 3.86246 7.18514 3.94204 7.3799 4.05346ZM27.9762 4.10121C28.8851 4.51504 29.2584 5.59736 28.8688 6.60011C28.7877 6.82294 28.0249 7.66652 27.1971 8.47827C26.3694 9.30593 21.5652 14.0332 16.55 18.9991L7.41236 28.0398H6.71446C5.36734 28.0398 4.27991 26.7823 4.57206 25.5568C4.65321 25.2225 7.68828 22.1506 15.1867 14.7653C20.9647 9.09901 25.9149 4.30812 26.1746 4.14896C26.7751 3.78287 27.262 3.76696 27.9762 4.10121ZM7.54221 13.6034L9.86314 15.8636L7.57467 18.1396C6.32493 19.3811 5.22127 20.3998 5.14012 20.3998C4.91289 20.3998 4.05269 18.6012 3.77677 17.5826C3.32232 15.8795 3.51709 14.0809 4.37729 12.3142C4.63698 11.773 4.92913 11.3273 5.04274 11.3273C5.15635 11.3273 6.27624 12.346 7.54221 13.6034ZM29.1935 12.4892C29.8427 13.8581 30.1186 15.7362 29.8589 17.0732C29.6804 18.0282 28.6579 20.3998 28.4306 20.3998C28.3008 20.3998 23.9835 16.0864 23.9835 15.9591C23.9835 15.8158 28.4306 11.4865 28.5767 11.4865C28.6416 11.4865 28.9175 11.9322 29.1935 12.4892ZM25.4929 21.7845C28.9987 25.2862 29.0149 25.3021 29.0149 26.0024C28.9987 27.2917 28.2034 28.0398 26.8401 28.0398H26.0285L22.4903 24.5859C20.5427 22.6759 18.9521 21.0524 18.9521 20.9728C18.9521 20.734 21.5977 18.1556 21.7924 18.2033C21.8898 18.2351 23.5453 19.8427 25.4929 21.7845ZM19.0008 25.2703C20.1694 26.4481 21.1594 27.4827 21.1919 27.5623C21.2731 27.7851 19.9746 28.6287 19.0657 28.947C17.7998 29.3767 15.5924 29.3449 14.3102 28.8674C13.7584 28.6605 13.0605 28.2944 12.7684 28.0398L12.2165 27.5941L14.3914 25.3499C15.5762 24.1243 16.615 23.1056 16.6961 23.1056C16.7773 23.1056 17.816 24.0765 19.0008 25.2703Z"
          fill="url(#paint0_linear_217_16)"/>
    <defs>
        <linearGradient id="paint0_linear_217_16" x1="7" y1="36" x2="41.5" y2="-7" gradientUnits="userSpaceOnUse">
            <stop stop-color="#0FB4B4"/>
            <stop offset="1" stop-color="#D616F5"/>
        </linearGradient>
    </defs>
</svg>
